<svg width="153" height="70" viewBox="0 0 153 70" fill="none" xmlns="http://www.w3.org/2000/svg">
<path d="M51.144 52H43.416L42.84 38.992C42.68 35.888 42.6 33.12 42.6 30.688C42.6 28.832 42.648 27.072 42.744 25.408L37.608 48.496H30.168L24.696 25.408C24.888 28.192 24.984 30.816 24.984 33.28C24.984 35.136 24.936 37.072 24.84 39.088L24.264 52H16.584L19.08 18.736H29.016L34.008 41.296L38.664 18.736H48.648L51.144 52ZM77.2144 52H70.6384L70.3024 48.784C68.4464 51.472 65.8704 52.816 62.5744 52.816C60.2384 52.816 58.4624 52.112 57.2464 50.704C56.0624 49.296 55.4704 47.328 55.4704 44.8V26.512H63.0544V43.84C63.0544 45.088 63.2464 45.968 63.6304 46.48C64.0464 46.96 64.6704 47.2 65.5024 47.2C67.1024 47.2 68.4784 46.208 69.6304 44.224V26.512H77.2144V52ZM92.1551 25.696C93.9791 25.696 95.6911 25.968 97.2911 26.512C98.8911 27.056 100.299 27.824 101.515 28.816L98.7311 33.088C96.6511 31.776 94.5551 31.12 92.4431 31.12C91.4511 31.12 90.6831 31.296 90.1391 31.648C89.6271 31.968 89.3711 32.432 89.3711 33.04C89.3711 33.52 89.4831 33.92 89.7071 34.24C89.9631 34.528 90.4591 34.832 91.1951 35.152C91.9311 35.472 93.0671 35.856 94.6031 36.304C97.2591 37.072 99.2271 38.08 100.507 39.328C101.819 40.544 102.475 42.24 102.475 44.416C102.475 46.144 101.979 47.648 100.987 48.928C99.9951 50.176 98.6351 51.136 96.9071 51.808C95.1791 52.48 93.2591 52.816 91.1471 52.816C89.0031 52.816 87.0031 52.48 85.1471 51.808C83.3231 51.136 81.7711 50.208 80.4911 49.024L84.1871 44.896C86.3311 46.56 88.5871 47.392 90.9551 47.392C92.1071 47.392 93.0031 47.184 93.6431 46.768C94.3151 46.352 94.6511 45.76 94.6511 44.992C94.6511 44.384 94.5231 43.904 94.2671 43.552C94.0111 43.2 93.5151 42.88 92.7791 42.592C92.0431 42.272 90.8751 41.888 89.2751 41.44C86.7471 40.704 84.8591 39.68 83.6111 38.368C82.3631 37.056 81.7391 35.424 81.7391 33.472C81.7391 32 82.1551 30.688 82.9871 29.536C83.8511 28.352 85.0671 27.424 86.6351 26.752C88.2351 26.048 90.0751 25.696 92.1551 25.696ZM128.813 25.696C130.573 25.696 132.157 25.952 133.565 26.464C134.973 26.976 136.301 27.76 137.549 28.816L134.285 33.328C132.685 32.112 131.069 31.504 129.437 31.504C127.741 31.504 126.461 32.128 125.597 33.376C124.733 34.624 124.301 36.64 124.301 39.424C124.301 42.112 124.733 44.016 125.597 45.136C126.461 46.256 127.709 46.816 129.341 46.816C130.205 46.816 130.989 46.688 131.693 46.432C132.397 46.144 133.245 45.696 134.237 45.088L137.549 49.792C135.021 51.808 132.157 52.816 128.957 52.816C126.365 52.816 124.125 52.272 122.237 51.184C120.349 50.064 118.893 48.512 117.869 46.528C116.845 44.512 116.333 42.16 116.333 39.472C116.333 36.784 116.845 34.4 117.869 32.32C118.893 30.24 120.349 28.624 122.237 27.472C124.125 26.288 126.317 25.696 128.813 25.696Z" fill="white"/>
<path d="M104.5 26.25V18C101.473 18 100 20.0362 100 22.125C100 24.2302 101.496 26.25 104.5 26.25ZM118 22.125C118 20.0362 116.527 18 113.5 18V26.25C116.504 26.25 118 24.2302 118 22.125ZM109 11.9835C106.091 11.9775 103.854 13.7452 103.193 16.6297C102.629 16.7385 102.083 16.9185 101.572 17.1667C102.044 13.041 104.811 9.75 109 9.75C113.192 9.75 115.968 13.0417 116.437 17.172C115.924 16.9215 115.376 16.7407 114.81 16.6312C114.149 13.7437 111.91 11.9775 109 11.9835V11.9835Z" fill="#FF00F5"/>
<path d="M112.992 19.736V53H105.12V19.736H112.992Z" fill="white"/>
</svg>
